/vscmnt/brussel_pixiu_data/_data_brussel/112/vsc11236/PredSimResults/SUBJ11mtu3D/weighted-trackIG/worker_01.mot
version=1
nRows=6
nColumns=50
inDegrees=yes
endheader
                time	         pelvis_tilt	         pelvis_list	     pelvis_rotation	           pelvis_tx	           pelvis_ty	           pelvis_tz	       hip_flexion_r	     hip_adduction_r	      hip_rotation_r	        knee_angle_r	       ankle_angle_r	         mtp_angle_r	       hip_flexion_l	     hip_adduction_l	      hip_rotation_l	        knee_angle_l	       ankle_angle_l	         mtp_angle_l	    lumbar_extension	      lumbar_bending	     lumbar_rotation	 ercspn_r/activation	 intobl_r/activation	 extobl_r/activation	    abd_r/activation	    add_r/activation	hamstrings_r/activation	bifemsh_r/activation	glut_max_r/activation	iliopsoas_r/activation	rect_fem_r/activation	  vasti_r/activation	gastroc_r/activation	 soleus_r/activation	tib_ant_r/activation	 ercspn_l/activation	 intobl_l/activation	 extobl_l/activation	    abd_l/activation	    add_l/activation	hamstrings_l/activation	bifemsh_l/activation	glut_max_l/activation	iliopsoas_l/activation	rect_fem_l/activation	  vasti_l/activation	gastroc_l/activation	 soleus_l/activation	tib_ant_l/activation	
          1.37514896	         -6.15532120	         -4.71754234	          8.13057708	          1.51266385	          0.93708841	         -0.01620371	         31.88705032	          1.18289740	         -4.48331064	         -5.11512740	          5.31491747	          0.23372073	        -13.12167665	         -5.37067397	          3.61595948	         -8.39661876	         11.48199760	         29.58309142	         -4.20857444	          3.35341729	         -2.50557467	          0.08136249	          0.11775206	          0.02282852	          0.01225894	          0.12292711	          0.04344168	          0.20806234	          0.05482488	          0.07873994	          0.00999999	          0.00999999	          0.02282852	          0.00999999	          0.29112429	          0.06228418	          0.00999999	          0.00999999	          0.04239712	          0.02574180	          0.02059209	          0.11318609	          0.04239712	          0.43333453	          0.00999999	          0.01000001	          0.31312090	          0.24448595	          0.00999999	
          1.38890045	         -6.25812740	         -4.58838680	          8.13442456	          1.53134318	          0.93520870	         -0.01551710	         31.75627387	          1.23268150	         -4.50953147	         -6.61325895	          4.91766865	          0.18878883	        -13.19815105	         -5.30597781	          3.21367086	        -10.10858686	         10.76285873	         31.73412926	         -3.89268885	          3.65898206	         -2.71570767	          0.06619187	          0.11018933	          0.01857198	          0.03863387	          0.10000648	          0.05450008	          0.16926764	          0.08162358	          0.06405832	          0.00999999	          0.00999999	          0.01857198	          0.01229190	          0.32252016	          0.07735703	          0.00999999	          0.00999999	          0.03449188	          0.02662347	          0.02039800	          0.09208174	          0.03449188	          0.41652631	          0.00999999	          0.02282852	          0.26912368	          0.22053554	          0.00999999	
          1.40265194	         -6.33775493	         -4.45567471	          8.08661052	          1.55019950	          0.93380401	         -0.01472781	         31.47025142	          1.28022342	         -4.55348220	         -7.88179286	          4.33643510	          0.17954083	        -13.06444299	         -5.22995095	          2.78570760	        -12.22402585	          9.86567634	         33.92384102	         -3.58703639	          3.97081301	         -2.89777271	          0.07882028	          0.08964374	          0.01510910	          0.10851152	          0.12814147	          0.05144213	          0.13770649	          0.10367523	          0.05211419	          0.00999999	          0.00999999	          0.01510910	          0.00999999	          0.36456868	          0.10984670	          0.00999999	          0.00999999	          0.02806062	          0.02870729	          0.02098964	          0.07491244	          0.02806062	          0.39908107	          0.01229190	          0.01857198	          0.21894366	          0.17941512	          0.00999999	
          1.41640342	         -6.39333663	         -4.31861627	          7.99087599	          1.56894046	          0.93307950	         -0.01384537	         31.12994539	          1.33669508	         -4.61202775	         -9.07230749	          3.71993835	          0.13693609	        -12.62122466	         -5.13948391	          2.33840466	        -14.87913569	          8.78650221	         36.04132964	         -3.31756893	          4.28826726	         -3.04797150	          0.08403963	          0.07292903	          0.01229190	          0.14582303	          0.15745853	          0.04619900	          0.11203013	          0.12654696	          0.04239713	          0.00999999	          0.02990401	          0.01229190	          0.00999999	          0.39485785	          0.14245303	          0.00999999	          0.00999999	          0.02282852	          0.05214335	          0.01707597	          0.06094449	          0.02282852	          0.37129222	          0.00999999	          0.01510910	          0.17812006	          0.14596190	          0.00999999	
          1.43015491	         -6.42325830	         -4.17496478	          7.85027062	          1.58741779	          0.93310411	         -0.01289654	         30.75273739	          1.39858285	         -4.67671612	        -10.26424145	          3.32786629	          0.10212928	        -11.81405507	         -5.03412655	          1.86727479	        -18.14053267	          7.52108520	         37.90302611	         -3.09167578	          4.60864413	         -3.16245105	          0.08360560	          0.05933089	          0.00999999	          0.15578898	          0.14639071	          0.04724272	          0.09114132	          0.12364959	          0.03449188	          0.00999999	          0.07505163	          0.00999999	          0.00999999	          0.41220224	          0.15252194	          0.00999999	          0.00999999	          0.01857198	          0.06978593	          0.02282852	          0.04958095	          0.01857198	          0.32477739	          0.00999999	          0.01229190	          0.14490831	          0.11874626	          0.00999999	
          1.44390640	         -6.42872755	         -4.01413143	          7.66762258	          1.60555584	          0.93387087	         -0.01191431	         30.29075754	          1.45674276	         -4.72764703	        -11.34980923	          3.09098521	          0.07506692	        -10.64562079	         -4.91177314	          1.36347637	        -21.97516586	          6.11355381	         39.14972452	         -2.91162182	          4.92057134	         -3.23936871	          0.07135604	          0.04826823	          0.00999999	          0.15286674	          0.11909512	          0.04594063	          0.07414737	          0.11970283	          0.02806062	          0.00999999	          0.12850502	          0.00999999	          0.00999999	          0.41157301	          0.16009883	          0.00999999	          0.00999999	          0.01510910	          0.08071573	          0.01857198	          0.04073582	          0.01510910	          0.26931078	          0.00999999	          0.00999999	          0.11788912	          0.09660518	          0.00999999	
